<?xml version="1.0" encoding="UTF-8" standalone="no"?>
<!-- Created with Inkscape (http://www.inkscape.org/) -->

<svg
   xmlns:dc="http://purl.org/dc/elements/1.1/"
   xmlns:cc="http://creativecommons.org/ns#"
   xmlns:rdf="http://www.w3.org/1999/02/22-rdf-syntax-ns#"
   xmlns:svg="http://www.w3.org/2000/svg"
   xmlns="http://www.w3.org/2000/svg"
   xmlns:sodipodi="http://sodipodi.sourceforge.net/DTD/sodipodi-0.dtd"
   xmlns:inkscape="http://www.inkscape.org/namespaces/inkscape"
   version="1.1"
   id="svg3713"
   width="309.33334"
   height="309.33334"
   viewBox="0 0 309.33334 309.33334"
   sodipodi:docname="logoak.svg"
   inkscape:version="0.92.3 (2405546, 2018-03-11)">
  <metadata
     id="metadata3719">
    <rdf:RDF>
      <cc:Work
         rdf:about="">
        <dc:format>image/svg+xml</dc:format>
        <dc:type
           rdf:resource="http://purl.org/dc/dcmitype/StillImage" />
        <dc:title></dc:title>
      </cc:Work>
    </rdf:RDF>
  </metadata>
  <defs
     id="defs3717" />
  <sodipodi:namedview
     pagecolor="#ffffff"
     bordercolor="#666666"
     borderopacity="1"
     objecttolerance="10"
     gridtolerance="10"
     guidetolerance="10"
     inkscape:pageopacity="0"
     inkscape:pageshadow="2"
     inkscape:window-width="1351"
     inkscape:window-height="894"
     id="namedview3715"
     showgrid="false"
     inkscape:zoom="1.7521551"
     inkscape:cx="154.66667"
     inkscape:cy="154.66667"
     inkscape:window-x="237"
     inkscape:window-y="37"
     inkscape:window-maximized="0"
     inkscape:current-layer="svg3713" />
  <path
     style="fill:#000000;stroke-width:1.33333337"
     d="M 128.18696,293.08033 C 34.212605,272.35358 -13.234805,165.95501 34.811025,83.689191 74.384305,15.930369 157.55787,-6.5755877 227.82473,31.461566 c 61.20568,33.132126 88.07213,114.202944 59.4814,179.488004 -17.15532,39.17303 -52.20904,69.13596 -94.4525,80.73531 -15.35717,4.21682 -48.62025,4.93461 -64.66667,1.39545 z m 42.00001,-6.78675 C 284.43299,274.1412 331.1918,136.09325 247.71434,57.406293 195.24699,7.9498688 112.18713,10.216353 62.118545,62.470713 -14.028505,141.94201 33.320885,273.17348 142.85363,286.23249 c 12.38376,1.47645 13.99358,1.48004 27.33334,0.0611 z M 97.520297,216.15897 c 0,-0.43483 11.400003,-12.20381 25.333333,-26.15328 13.93333,-13.94948 25.33333,-25.76627 25.33333,-26.25952 0,-0.49327 -2.86442,-3.7182 -6.36537,-7.16651 l -6.36538,-6.26966 -17.94943,17.98645 c -9.87219,9.89255 -18.407769,17.98645 -18.967957,17.98645 -1.029186,0 -1.489679,-88.415273 -0.465854,-89.444439 0.30397,-0.305556 3.891211,-0.350767 7.971641,-0.100467 l 7.41896,0.455089 0.3617,25.377117 0.36169,25.37711 26,-25.47314 26.00001,-25.47314 10.33333,-0.02573 c 5.68333,-0.01415 10.33333,0.431773 10.33333,0.990941 0,0.559169 -8.99349,9.995159 -19.98553,20.968879 l -19.98554,19.95222 6.26875,6.36445 c 3.4478,3.50044 6.64867,6.36444 7.11303,6.36444 0.46436,0 13.19193,-12.3 28.28348,-27.33333 15.09155,-15.03333 27.78417,-27.333326 28.20583,-27.333326 0.42166,0 0.76665,26.999996 0.76665,59.999996 v 60 h -7.65151 -7.6515 L 181.20213,195.9652 160.18697,174.98082 139.1718,195.9652 118.15664,216.94957 h -10.31817 c -5.67499,0 -10.318173,-0.35577 -10.318173,-0.7906 z m 103.711033,-65.79339 -0.3777,-14.73177 -14.36776,14.26824 -14.36776,14.26825 14.36776,14.41724 14.36776,14.41726 0.3777,-13.95371 c 0.20773,-7.67455 0.20773,-20.58303 0,-28.68551 z"
     id="path3741"
     inkscape:connector-curvature="0" />
  <g
     id="g3725"
     transform="translate(-163.79828,3.4243544)" />
</svg>
